<svg xmlns="http://www.w3.org/2000/svg" viewBox="0 0 980 300" width="100%" height="100%">
  <defs>
    <!-- Background Card Gradient -->
    <linearGradient id="panel-bg" x1="0%" y1="0%" x2="100%" y2="100%">
      <stop offset="0%" stop-color="#000000" stop-opacity="0.95"/>
      <stop offset="100%" stop-color="#090505" stop-opacity="0.98"/>
    </linearGradient>

    <!-- Card Fill -->
    <linearGradient id="card-fill" x1="0%" y1="0%" x2="0%" y2="100%">
      <stop offset="0%" stop-color="#0A0A0A" stop-opacity="0.8"/>
      <stop offset="100%" stop-color="#000000" stop-opacity="0.9"/>
    </linearGradient>

    <!-- Glow Filter -->
    <filter id="card-glow" x="-20%" y="-20%" width="140%" height="140%">
      <feGaussianBlur stdDeviation="5" result="blur"/>
      <feMerge>
        <feMergeNode in="blur"/>
        <feMergeNode in="SourceGraphic"/>
      </feMerge>
    </filter>
  </defs>

  <style>
    @keyframes card-pulse {
      0%, 100% { stroke: #1F1F1F; }
      50% { stroke: #FF0000; stroke-opacity: 0.6; }
    }
    @keyframes float-pill {
      0%, 100% { transform: translateY(0); }
      50% { transform: translateY(-2px); }
    }
    @keyframes spin-react {
      0% { transform: rotate(0deg); }
      100% { transform: rotate(360deg); }
    }
    @keyframes pulse-git {
      0%, 100% { transform: scale(1); }
      50% { transform: scale(1.1); }
    }
    @keyframes wiggle-python {
      0%, 100% { transform: rotate(0deg); }
      25% { transform: rotate(-5deg); }
      75% { transform: rotate(5deg); }
    }

    .card-border {
      fill: url(#card-fill);
      stroke: #1F1F1F;
      stroke-width: 1.5;
      transition: all 0.3s ease;
    }
    .card-group:hover .card-border {
      stroke: #FF0000;
      stroke-opacity: 0.9;
      fill: #050000;
      filter: url(#card-glow);
    }
    .active-pulse-1 { animation: card-pulse 4s infinite ease-in-out; }
    .active-pulse-2 { animation: card-pulse 4s infinite ease-in-out 1s; }
    .active-pulse-3 { animation: card-pulse 4s infinite ease-in-out 2s; }
    .active-pulse-4 { animation: card-pulse 4s infinite ease-in-out 3s; }
    
    .tech-pill-group {
      cursor: pointer;
      transition: all 0.25s ease;
    }
    .tech-pill {
      fill: #0A0A0A;
      stroke: #1F1F1F;
      stroke-width: 1;
      transition: all 0.25s ease;
    }
    .tech-text {
      font-family: -apple-system, BlinkMacSystemFont, "Segoe UI", Roboto, "Helvetica Neue", sans-serif;
      font-size: 11.5px;
      font-weight: 500;
      fill: #808080;
      pointer-events: none;
      transition: fill 0.25s ease, font-weight 0.25s ease;
    }
    
    /* Interactive Hover Animations */
    .tech-pill-group:hover .tech-pill {
      fill: #140505;
      stroke: #FF0000;
      filter: drop-shadow(0 0 6px rgba(255, 0, 0, 0.4));
    }
    .tech-pill-group:hover .tech-text {
      fill: #FFFFFF;
      font-weight: 600;
    }
    
    /* Icon specific hover animations */
    .tech-pill-group:hover .icon-react {
      animation: spin-react 5s linear infinite;
    }
    .tech-pill-group:hover .icon-git {
      animation: pulse-git 1.2s infinite ease-in-out;
    }
    .tech-pill-group:hover .icon-python {
      animation: wiggle-python 0.8s infinite ease-in-out;
    }
    .tech-pill-group:hover .icon-nodejs {
      animation: pulse-git 1.5s infinite ease-in-out;
    }
    .tech-pill-group:hover .icon-vscode {
      transform: scale(1.1) rotate(5deg);
    }
    .tech-pill-group:hover .icon-github {
      transform: scale(1.1);
    }
    .tech-pill-group:hover .icon-vercel {
      transform: scale(1.1);
    }
    
    /* Base style for icons */
    .tech-icon {
      transition: transform 0.25s ease-in-out;
      transform-origin: center center;
    }
    
    .card-title {
      font-family: -apple-system, BlinkMacSystemFont, "Segoe UI", Roboto, sans-serif;
      font-size: 11px;
      font-weight: 700;
      letter-spacing: 1.5px;
      text-transform: uppercase;
      pointer-events: none;
    }
    .float-item-1 { animation: float-pill 3s infinite ease-in-out; }
    .float-item-2 { animation: float-pill 3.5s infinite ease-in-out 0.5s; }
    .float-item-3 { animation: float-pill 3s infinite ease-in-out 1s; }
    .float-item-4 { animation: float-pill 4s infinite ease-in-out 1.5s; }
  </style>

  <!-- Panel Background -->
  <rect width="980" height="300" rx="12" fill="url(#panel-bg)" stroke="#1F1F1F" stroke-width="1.5"/>

  <!-- COLUMN 1: FRONTEND -->
  <g class="card-group" transform="translate(15, 20)">
    <rect class="card-border active-pulse-1" width="180" height="260" rx="8"/>
    <text class="card-title" x="20" y="30" fill="#FF0000">Frontend</text>
    
    <!-- Pills -->
    <g transform="translate(20, 50)">
      <g class="tech-pill-group float-item-1" transform="translate(0, 0)">
        <rect class="tech-pill" width="140" height="30" rx="6"/>
        <svg class="tech-icon icon-react" width="18" height="18" x="8" y="6" viewBox="0 0 128 128">
          <g fill="#61DAFB"><circle cx="64" cy="64" r="11.4"/><path d="M107.3 45.2c-2.2-.8-4.5-1.6-6.9-2.3.6-2.4 1.1-4.8 1.5-7.1 2.1-13.2-.2-22.5-6.6-26.1-1.9-1.1-4-1.6-6.4-1.6-7 0-15.9 5.2-24.9 13.9-9-8.7-17.9-13.9-24.9-13.9-2.4 0-4.5.5-6.4 1.6-6.4 3.7-8.7 13-6.6 26.1.4 2.3.9 4.7 1.5 7.1-2.4.7-4.7 1.4-6.9 2.3C8.2 50 1.4 56.6 1.4 64s6.9 14 19.3 18.8c2.2.8 4.5 1.6 6.9 2.3-.6 2.4-1.1 4.8-1.5 7.1-2.1 13.2.2 22.5 6.6 26.1 1.9 1.1 4 1.6 6.4 1.6 7.1 0 16-5.2 24.9-13.9 9 8.7 17.9 13.9 24.9 13.9 2.4 0 4.5-.5 6.4-1.6 6.4-3.7 8.7-13 6.6-26.1-.4-2.3-.9-4.7-1.5-7.1 2.4-.7 4.7-1.4 6.9-2.3 12.5-4.8 19.3-11.4 19.3-18.8s-6.8-14-19.3-18.8zM92.5 14.7c4.1 2.4 5.5 9.8 3.8 20.3-.3 2.1-.8 4.3-1.4 6.6-5.2-1.2-10.7-2-16.5-2.5-3.4-4.8-6.9-9.1-10.4-13 7.4-7.3 14.9-12.3 21-12.3 1.3 0 2.5.3 3.5.9zM81.3 74c-1.8 3.2-3.9 6.4-6.1 9.6-3.7.3-7.4.4-11.2.4-3.9 0-7.6-.1-11.2-.4-2.2-3.2-4.2-6.4-6-9.6-1.9-3.3-3.7-6.7-5.3-10 1.6-3.3 3.4-6.7 5.3-10 1.8-3.2 3.9-6.4 6.1-9.6 3.7-.3 7.4-.4 11.2-.4 3.9 0 7.6.1 11.2.4 2.2 3.2 4.2 6.4 6 9.6 1.9 3.3 3.7 6.7 5.3 10-1.7 3.3-3.4 6.6-5.3 10zm8.3-3.3c1.5 3.5 2.7 6.9 3.8 10.3-3.4.8-7 1.4-10.8 1.9 1.2-1.9 2.5-3.9 3.6-6 1.2-2.1 2.3-4.2 3.4-6.2zM64 97.8c-2.4-2.6-4.7-5.4-6.9-8.3 2.3.1 4.6.2 6.9.2 2.3 0 4.6-.1 6.9-.2-2.2 2.9-4.5 5.7-6.9 8.3zm-18.6-15c-3.8-.5-7.4-1.1-10.8-1.9 1.1-3.3 2.3-6.8 3.8-10.3 1.1 2 2.2 4.1 3.4 6.1 1.2 2.2 2.4 4.1 3.6 6.1zm-7-25.5c-1.5-3.5-2.7-6.9-3.8-10.3 3.4-.8 7-1.4 10.8-1.9-1.2 1.9-2.5 3.9-3.6 6-1.2 2.1-2.3 4.2-3.4 6.2zM64 30.2c2.4 2.6 4.7 5.4 6.9 8.3-2.3-.1-4.6-.2-6.9-.2-2.3 0-4.6.1-6.9.2 2.2-2.9 4.5-5.7 6.9-8.3zm22.2 21l-3.6-6c3.8.5 7.4 1.1 10.8 1.9-1.1 3.3-2.3 6.8-3.8 10.3-1.1-2.1-2.2-4.2-3.4-6.2zM31.7 35c-1.7-10.5-.3-17.9 3.8-20.3 1-.6 2.2-.9 3.5-.9 6 0 13.5 4.9 21 12.3-3.5 3.8-7 8.2-10.4 13-5.8.5-11.3 1.4-16.5 2.5-.6-2.3-1-4.5-1.4-6.6zM7 64c0-4.7 5.7-9.7 15.7-13.4 2-.8 4.2-1.5 6.4-2.1 1.6 5 3.6 10.3 6 15.6-2.4 5.3-4.5 10.5-6 15.5C15.3 75.6 7 69.6 7 64zm28.5 49.3c-4.1-2.4-5.5-9.8-3.8-20.3.3-2.1.8-4.3 1.4-6.6 5.2 1.2 10.7 2 16.5 2.5 3.4 4.8 6.9 9.1 10.4 13-7.4 7.3-14.9 12.3-21 12.3-1.3 0-2.5-.3-3.5-.9zM96.3 93c1.7 10.5.3 17.9-3.8 20.3-1 .6-2.2.9-3.5.9-6 0-13.5-4.9-21-12.3 3.5-3.8 7-8.2 10.4-13 5.8-.5 11.3-1.4 16.5-2.5.6 2.3 1 4.5 1.4 6.6zm9-15.6c-2 .8-4.2 1.5-6.4 2.1-1.6-5-3.6-10.3-6-15.6 2.4-5.3 4.5-10.5 6-15.5 13.8 4 22.1 10 22.1 15.6 0 4.7-5.8 9.7-15.7 13.4z"/></g>
        </svg>
        <text class="tech-text" x="32" y="19" text-anchor="start">React.js</text>
      </g>
      <g class="tech-pill-group float-item-2" transform="translate(0, 40)">
        <rect class="tech-pill" width="140" height="30" rx="6"/>
        <svg class="tech-icon icon-javascript" width="18" height="18" x="8" y="6" viewBox="0 0 128 128">
          <path fill="#F0DB4F" d="M1.408 1.408h125.184v125.185H1.408z"/><path fill="#323330" d="M116.347 96.736c-.917-5.711-4.641-10.508-15.672-14.981-3.832-1.761-8.104-3.022-9.377-5.926-.452-1.69-.512-2.642-.226-3.665.821-3.32 4.784-4.355 7.925-3.403 2.023.678 3.938 2.237 5.093 4.724 5.402-3.498 5.391-3.475 9.163-5.879-1.381-2.141-2.118-3.129-3.022-4.045-3.249-3.629-7.676-5.498-14.756-5.355l-3.688.477c-3.534.893-6.902 2.748-8.877 5.235-5.926 6.724-4.236 18.492 2.975 23.335 7.104 5.332 17.54 6.545 18.873 11.531 1.297 6.104-4.486 8.08-10.234 7.378-4.236-.881-6.592-3.034-9.139-6.949-4.688 2.713-4.688 2.713-9.508 5.485 1.143 2.499 2.344 3.63 4.26 5.795 9.068 9.198 31.76 8.746 35.83-5.176.165-.478 1.261-3.666.38-8.581zM69.462 58.943H57.753l-.048 30.272c0 6.438.333 12.34-.714 14.149-1.713 3.558-6.152 3.117-8.175 2.427-2.059-1.012-3.106-2.451-4.319-4.485-.333-.584-.583-1.036-.667-1.071l-9.52 5.83c1.583 3.249 3.915 6.069 6.902 7.901 4.462 2.678 10.459 3.499 16.731 2.059 4.082-1.189 7.604-3.652 9.448-7.401 2.666-4.915 2.094-10.864 2.07-17.444.06-10.735.001-21.468.001-32.237z"/>
        </svg>
        <text class="tech-text" x="32" y="19" text-anchor="start">JavaScript</text>
      </g>
      <g class="tech-pill-group float-item-3" transform="translate(0, 80)">
        <rect class="tech-pill" width="140" height="30" rx="6"/>
        <svg class="tech-icon icon-html5" width="18" height="18" x="8" y="6" viewBox="0 0 128 128">
          <path fill="#E44D26" d="M19.037 113.876L9.032 1.661h109.936l-10.016 112.198-45.019 12.48z"/><path fill="#F16529" d="M64 116.8l36.378-10.086 8.559-95.878H64z"/><path fill="#EBEBEB" d="M64 52.455H45.788L44.53 38.361H64V24.599H29.489l.33 3.692 3.382 37.927H64zm0 35.743l-.061.017-15.327-4.14-.979-10.975H33.816l1.928 21.609 28.193 7.826.063-.017z"/><path fill="#fff" d="M63.952 52.455v13.763h16.947l-1.597 17.849-15.35 4.143v14.319l28.215-7.82.207-2.325 3.234-36.233.335-3.696h-3.708zm0-27.856v13.762h33.244l.276-3.092.628-6.978.329-3.692z"/>
        </svg>
        <text class="tech-text" x="32" y="19" text-anchor="start">HTML5</text>
      </g>
      <g class="tech-pill-group float-item-4" transform="translate(0, 120)">
        <rect class="tech-pill" width="140" height="30" rx="6"/>
        <svg class="tech-icon icon-css3" width="18" height="18" x="8" y="6" viewBox="0 0 128 128">
          <path fill="#1572B6" d="M18.814 114.123L8.76 1.352h110.48l-10.064 112.754-45.243 12.543-45.119-12.526z"/><path fill="#33A9DC" d="M64.001 117.062l36.559-10.136 8.601-96.354h-45.16v106.49z"/><path fill="#fff" d="M64.001 51.429h18.302l1.264-14.163H64.001V23.435h34.682l-.332 3.711-3.4 38.114h-30.95V51.429z"/><path fill="#EBEBEB" d="M64.083 87.349l-.061.018-15.403-4.159-.985-11.031H33.752l1.937 21.717 28.331 7.863.063-.018v-14.39z"/><path fill="#fff" d="M81.127 64.675l-1.666 18.522-15.426 4.164v14.39l28.354-7.858.208-2.337 2.406-26.881H81.127z"/><path fill="#EBEBEB" d="M64.048 23.435v13.831H30.64l-.277-3.108-.63-7.012-.331-3.711h34.646zm-.047 27.996v13.831H48.792l-.277-3.108-.631-7.012-.33-3.711h16.447z"/>
        </svg>
        <text class="tech-text" x="32" y="19" text-anchor="start">CSS3</text>
      </g>
      <g class="tech-pill-group float-item-1" transform="translate(0, 160)">
        <rect class="tech-pill" width="140" height="30" rx="6"/>
        <svg class="tech-icon icon-tailwindcss" width="18" height="18" x="8" y="6" viewBox="0 0 128 128">
          <path d="M64.004 25.602c-17.067 0-27.73 8.53-32 25.597 6.398-8.531 13.867-11.73 22.398-9.597 4.871 1.214 8.352 4.746 12.207 8.66C72.883 56.629 80.145 64 96.004 64c17.066 0 27.73-8.531 32-25.602-6.399 8.536-13.867 11.735-22.399 9.602-4.87-1.215-8.347-4.746-12.207-8.66-6.27-6.367-13.53-13.738-29.394-13.738zM32.004 64c-17.066 0-27.73 8.531-32 25.602C6.402 81.066 13.87 77.867 22.402 80c4.871 1.215 8.352 4.746 12.207 8.66 6.274 6.367 13.536 13.738 29.395 13.738 17.066 0 27.73-8.53 32-25.597-6.399 8.531-13.867 11.73-22.399 9.597-4.87-1.214-8.347-4.746-12.207-8.66C55.128 71.371 47.868 64 32.004 64zm0 0" fill="#38bdf8"/>
        </svg>
        <text class="tech-text" x="32" y="19" text-anchor="start">Tailwind CSS</text>
      </g>
    </g>
  </g>
  <!-- COLUMN 2: BACKEND -->
  <g class="card-group" transform="translate(205, 20)">
    <rect class="card-border active-pulse-2" width="180" height="260" rx="8"/>
    <text class="card-title" x="20" y="30" fill="#FF0000">Backend</text>
    
    <!-- Pills -->
    <g transform="translate(20, 50)">
      <g class="tech-pill-group float-item-1" transform="translate(0, 0)">
        <rect class="tech-pill" width="140" height="30" rx="6"/>
        <svg class="tech-icon icon-nodejs" width="18" height="18" x="8" y="6" viewBox="0 0 128 128">
          <path fill="url(#a)" d="M66.958.825a6.07 6.07 0 0 0-6.035 0L11.103 29.76c-1.895 1.072-2.96 3.095-2.96 5.24v57.988c0 2.143 1.183 4.167 2.958 5.24l49.82 28.934a6.07 6.07 0 0 0 6.036 0l49.82-28.935c1.894-1.072 2.958-3.096 2.958-5.24V35c0-2.144-1.183-4.167-2.958-5.24z"/><path fill="url(#b)" d="M116.897 29.76 66.841.825A8.161 8.161 0 0 0 65.302.23L9.21 96.798a6.251 6.251 0 0 0 1.657 1.43l50.057 28.934c1.42.833 3.076 1.072 4.615.595l52.66-96.925a3.702 3.702 0 0 0-1.302-1.072z"/><path fill="url(#c)" d="M116.898 98.225c1.42-.833 2.485-2.262 2.958-3.81L65.066.108c-1.42-.238-2.959-.119-4.26.715L11.104 29.639l53.606 98.355c.71-.12 1.54-.358 2.25-.715z"/><defs><linearGradient id="a" x1="34.513" x2="27.157" y1="15.535" y2="30.448" gradientTransform="translate(-129.242 -73.715) scale(6.18523)" gradientUnits="userSpaceOnUse"><stop stop-color="#3F873F"/><stop offset=".33" stop-color="#3F8B3D"/><stop offset=".637" stop-color="#3E9638"/><stop offset=".934" stop-color="#3DA92E"/><stop offset="1" stop-color="#3DAE2B"/></linearGradient><linearGradient id="b" x1="30.009" x2="50.533" y1="23.359" y2="8.288" gradientTransform="translate(-129.242 -73.715) scale(6.18523)" gradientUnits="userSpaceOnUse"><stop offset=".138" stop-color="#3F873F"/><stop offset=".402" stop-color="#52A044"/><stop offset=".713" stop-color="#64B749"/><stop offset=".908" stop-color="#6ABF4B"/></linearGradient><linearGradient id="c" x1="21.917" x2="40.555" y1="22.261" y2="22.261" gradientTransform="translate(-129.242 -73.715) scale(6.18523)" gradientUnits="userSpaceOnUse"><stop offset=".092" stop-color="#6ABF4B"/><stop offset=".287" stop-color="#64B749"/><stop offset=".598" stop-color="#52A044"/><stop offset=".862" stop-color="#3F873F"/></linearGradient></defs>
        </svg>
        <text class="tech-text" x="32" y="19" text-anchor="start">Node.js</text>
      </g>
      <g class="tech-pill-group float-item-2" transform="translate(0, 40)">
        <rect class="tech-pill" width="140" height="30" rx="6"/>
        <svg class="tech-icon icon-express" width="18" height="18" x="8" y="6" viewBox="0 0 128 128">
          <g fill="#E0E0E0"><path d="M126.67 98.44c-4.56 1.16-7.38.05-9.91-3.75-5.68-8.51-11.95-16.63-18-24.9-.78-1.07-1.59-2.12-2.6-3.45C89 76 81.85 85.2 75.14 94.77c-2.4 3.42-4.92 4.91-9.4 3.7l26.92-36.13L67.6 29.71c4.31-.84 7.29-.41 9.93 3.45 5.83 8.52 12.26 16.63 18.67 25.21 6.45-8.55 12.8-16.67 18.8-25.11 2.41-3.42 5-4.72 9.33-3.46-3.28 4.35-6.49 8.63-9.72 12.88-4.36 5.73-8.64 11.53-13.16 17.14-1.61 2-1.35 3.3.09 5.19C109.9 76 118.16 87.1 126.67 98.44zM1.33 61.74c.72-3.61 1.2-7.29 2.2-10.83 6-21.43 30.6-30.34 47.5-17.06C60.93 41.64 63.39 52.62 62.9 65H7.1c-.84 22.21 15.15 35.62 35.53 28.78 7.15-2.4 11.36-8 13.47-15 1.07-3.51 2.84-4.06 6.14-3.06-1.69 8.76-5.52 16.08-13.52 20.66-12 6.86-29.13 4.64-38.14-4.89C5.26 85.89 3 78.92 2 71.39c-.15-1.2-.46-2.38-.7-3.57q.03-3.04.03-6.08zm5.87-1.49h50.43c-.33-16.06-10.33-27.47-24-27.57-15-.12-25.78 11.02-26.43 27.57z"/></g>
        </svg>
        <text class="tech-text" x="32" y="19" text-anchor="start">Express.js</text>
      </g>
      <g class="tech-pill-group float-item-3" transform="translate(0, 80)">
        <rect class="tech-pill" width="140" height="30" rx="6"/>
        <svg class="tech-icon icon-python" width="18" height="18" x="8" y="6" viewBox="0 0 128 128">
          <linearGradient id="python-original-a" gradientUnits="userSpaceOnUse" x1="70.252" y1="1237.476" x2="170.659" y2="1151.089" gradientTransform="matrix(.563 0 0 -.568 -29.215 707.817)"><stop offset="0" stop-color="#5A9FD4"/><stop offset="1" stop-color="#306998"/></linearGradient><linearGradient id="python-original-b" gradientUnits="userSpaceOnUse" x1="209.474" y1="1098.811" x2="173.62" y2="1149.537" gradientTransform="matrix(.563 0 0 -.568 -29.215 707.817)"><stop offset="0" stop-color="#FFD43B"/><stop offset="1" stop-color="#FFE873"/></linearGradient><path fill="url(#python-original-a)" d="M63.391 1.988c-4.222.02-8.252.379-11.8 1.007-10.45 1.846-12.346 5.71-12.346 12.837v9.411h24.693v3.137H29.977c-7.176 0-13.46 4.313-15.426 12.521-2.268 9.405-2.368 15.275 0 25.096 1.755 7.311 5.947 12.519 13.124 12.519h8.491V67.234c0-8.151 7.051-15.34 15.426-15.34h24.665c6.866 0 12.346-5.654 12.346-12.548V15.833c0-6.693-5.646-11.72-12.346-12.837-4.244-.706-8.645-1.027-12.866-1.008zM50.037 9.557c2.55 0 4.634 2.117 4.634 4.721 0 2.593-2.083 4.69-4.634 4.69-2.56 0-4.633-2.097-4.633-4.69-.001-2.604 2.073-4.721 4.633-4.721z" transform="translate(0 10.26)"/><path fill="url(#python-original-b)" d="M91.682 28.38v10.966c0 8.5-7.208 15.655-15.426 15.655H51.591c-6.756 0-12.346 5.783-12.346 12.549v23.515c0 6.691 5.818 10.628 12.346 12.547 7.816 2.297 15.312 2.713 24.665 0 6.216-1.801 12.346-5.423 12.346-12.547v-9.412H63.938v-3.138h37.012c7.176 0 9.852-5.005 12.348-12.519 2.578-7.735 2.467-15.174 0-25.096-1.774-7.145-5.161-12.521-12.348-12.521h-9.268zM77.809 87.927c2.561 0 4.634 2.097 4.634 4.692 0 2.602-2.074 4.719-4.634 4.719-2.55 0-4.633-2.117-4.633-4.719 0-2.595 2.083-4.692 4.633-4.692z" transform="translate(0 10.26)"/><radialGradient id="python-original-c" cx="1825.678" cy="444.45" r="26.743" gradientTransform="matrix(0 -.24 -1.055 0 532.979 557.576)" gradientUnits="userSpaceOnUse"><stop offset="0" stop-color="#B8B8B8" stop-opacity=".498"/><stop offset="1" stop-color="#7F7F7F" stop-opacity="0"/></radialGradient><path opacity=".444" fill="url(#python-original-c)" d="M97.309 119.597c0 3.543-14.816 6.416-33.091 6.416-18.276 0-33.092-2.873-33.092-6.416 0-3.544 14.815-6.417 33.092-6.417 18.275 0 33.091 2.872 33.091 6.417z"/>
        </svg>
        <text class="tech-text" x="32" y="19" text-anchor="start">Python</text>
      </g>
      <g class="tech-pill-group float-item-4" transform="translate(0, 120)">
        <rect class="tech-pill" width="140" height="30" rx="6"/>
        <svg class="tech-icon icon-fastapi" width="18" height="18" x="8" y="6" viewBox="0 0 128 128">
          <path d="M56.813 127.586c-1.903-.227-3.899-.52-4.434-.652a48.078 48.078 0 00-2.375-.5 36.042 36.042 0 01-2.703-.633c-4.145-1.188-4.442-1.285-7.567-2.563-2.875-1.172-8.172-3.91-9.984-5.156-.496-.344-.96-.621-1.031-.621-.07 0-1.23-.816-2.578-1.813-8.57-6.343-15.004-14.043-19.653-23.527-.8-1.629-1.453-3.074-1.453-3.21 0-.134-.144-.505-.32-.817-.363-.649-.88-2.047-1.297-3.492a20.047 20.047 0 00-.625-1.813c-.195-.46-.352-1.02-.352-1.246 0-.227-.195-.965-.433-1.645-.238-.675-.43-1.472-.43-1.77 0-.296-.187-1.32-.418-2.276C.598 73.492 0 67.379 0 63.953c0-3.422.598-9.535 1.16-11.894.23-.957.418-2 .418-2.32 0-.321.145-.95.32-1.4.18-.448.41-1.253.516-1.788.11-.535.36-1.457.563-2.055l.59-1.726c.433-1.293.835-2.387 1.027-2.813.11-.238.539-1.21.957-2.16.676-1.535 2.125-4.43 2.972-5.945.309-.555.426-.739 2.098-3.352 2.649-4.148 7.176-9.309 11.39-12.988 1.485-1.297 6.446-5.063 6.669-5.063.062 0 .53-.281 1.043-.625 1.347-.902 2.668-1.668 4.39-2.531a53.06 53.06 0 001.836-.953c.285-.164.82-.41 3.567-1.64.605-.27 1.257-.516 3.136-1.173.414-.144 1.246-.449 1.84-.672.598-.222 1.301-.406 1.563-.406.258 0 .937-.18 1.508-.402.57-.223 1.605-.477 2.304-.563.696-.082 1.621-.277 2.055-.43.43-.148 1.61-.34 2.621-.425a72.572 72.572 0 003.941-.465c2.688-.394 8.532-.394 11.192 0a75.02 75.02 0 003.781.445c.953.079 2.168.278 2.703.442.535.16 1.461.36 2.055.433.594.079 1.594.325 2.222.551.63.23 1.344.414 1.59.414s.754.137 1.125.309c.375.168 1.168.449 1.766.625.594.18 1.613.535 2.27.797.652.261 1.527.605 1.945.761.77.29 6.46 3.137 7.234 3.622 6.281 3.917 9.512 6.476 13.856 10.964 5.238 5.414 8.715 10.57 12.254 18.16.25.536.632 1.329.851 1.758.215.434.395.942.395 1.13 0 .19.18.76.402 1.269.602 1.383 1.117 2.957 1.36 4.16.12.59.343 1.32.495 1.621.153.3.332 1.063.403 1.688.07.624.277 1.648.453 2.269 1.02 3.531 1.527 13.934.91 18.535-.183 1.367-.39 3.02-.46 3.672-.118 1.117-.708 4.004-1.212 5.945l-.52 2.055c-.98 3.957-3.402 9.594-6.359 14.809-1.172 2.07-5.101 7.668-5.843 8.324-.067.058-.399.45-.735.863-.336.418-1.414 1.586-2.39 2.594-4.301 4.441-7.77 7.187-13.86 10.969-.722.449-6.847 3.441-7.992 3.906-.594.238-1.586.64-2.203.89-.613.247-1.297.454-1.512.458-.215.003-.781.195-1.258.425-.476.23-1.082.422-1.351.426-.266.004-1.043.192-1.727.418-.683.23-1.633.477-2.11.55-.476.075-1.495.278-2.269.45-.773.172-3.11.508-5.187.746a59.06 59.06 0 01-13.945-.031zm4.703-12.5c.3-.234.609-.7.691-1.027.18-.723 29.234-58.97 29.781-59.7.461-.617.504-1.605.082-1.953-.222-.187-3.004-.246-10.43-.234-5.57.012-10.253.016-10.406.012-.226-.008-.273-3.73-.25-19.672.016-10.817-.035-19.766-.113-19.89-.078-.126-.383-.227-.68-.227-.418 0-.613.18-.87.808-.485 1.168-1.825 3.82-8.348 16.485a3554.569 3554.569 0 00-4.055 7.89c-1.156 2.262-2.98 5.813-4.047 7.89a8751.248 8751.248 0 00-8.598 16.759c-4.933 9.636-5.53 10.785-5.742 11.039-.41.496-.633 1.64-.402 2.07.21.394.629.41 11.043.394 5.953-.007 10.863.024 10.914.07.137.141.086 37.31-.055 38.196-.093.582-.031.89.235 1.156.46.461.586.457 1.25-.066zm0 0" fill="#049688"/>
        </svg>
        <text class="tech-text" x="32" y="19" text-anchor="start">FastAPI</text>
      </g>
    </g>
  </g>
  <!-- COLUMN 3: DATABASE -->
  <g class="card-group" transform="translate(395, 20)">
    <rect class="card-border active-pulse-3" width="180" height="260" rx="8"/>
    <text class="card-title" x="20" y="30" fill="#FF0000">Database</text>
    
    <!-- Pills -->
    <g transform="translate(20, 50)">
      <g class="tech-pill-group float-item-1" transform="translate(0, 0)">
        <rect class="tech-pill" width="140" height="30" rx="6"/>
        <svg class="tech-icon icon-mongodb" width="18" height="18" x="8" y="6" viewBox="0 0 128 128">
          <path fill-rule="evenodd" clip-rule="evenodd" fill="#439934" d="M88.038 42.812c1.605 4.643 2.761 9.383 3.141 14.296.472 6.095.256 12.147-1.029 18.142-.035.165-.109.32-.164.48-.403.001-.814-.049-1.208.012-3.329.523-6.655 1.065-9.981 1.604-3.438.557-6.881 1.092-10.313 1.687-1.216.21-2.721-.041-3.212 1.641-.014.046-.154.054-.235.08l.166-10.051-.169-24.252 1.602-.275c2.62-.429 5.24-.864 7.862-1.281 3.129-.497 6.261-.98 9.392-1.465 1.381-.215 2.764-.412 4.148-.618z"/><path fill-rule="evenodd" clip-rule="evenodd" fill="#45A538" d="M61.729 110.054c-1.69-1.453-3.439-2.842-5.059-4.37-8.717-8.222-15.093-17.899-18.233-29.566-.865-3.211-1.442-6.474-1.627-9.792-.13-2.322-.318-4.665-.154-6.975.437-6.144 1.325-12.229 3.127-18.147l.099-.138c.175.233.427.439.516.702 1.759 5.18 3.505 10.364 5.242 15.551 5.458 16.3 10.909 32.604 16.376 48.9.107.318.384.579.583.866l-.87 2.969z"/><path fill-rule="evenodd" clip-rule="evenodd" fill="#46A037" d="M88.038 42.812c-1.384.206-2.768.403-4.149.616-3.131.485-6.263.968-9.392 1.465-2.622.417-5.242.852-7.862 1.281l-1.602.275-.012-1.045c-.053-.859-.144-1.717-.154-2.576-.069-5.478-.112-10.956-.18-16.434-.042-3.429-.105-6.857-.175-10.285-.043-2.13-.089-4.261-.185-6.388-.052-1.143-.236-2.28-.311-3.423-.042-.657.016-1.319.029-1.979.817 1.583 1.616 3.178 2.456 4.749 1.327 2.484 3.441 4.314 5.344 6.311 7.523 7.892 12.864 17.068 16.193 27.433z"/><path fill-rule="evenodd" clip-rule="evenodd" fill="#409433" d="M65.036 80.753c.081-.026.222-.034.235-.08.491-1.682 1.996-1.431 3.212-1.641 3.432-.594 6.875-1.13 10.313-1.687 3.326-.539 6.652-1.081 9.981-1.604.394-.062.805-.011 1.208-.012-.622 2.22-1.112 4.488-1.901 6.647-.896 2.449-1.98 4.839-3.131 7.182a49.142 49.142 0 01-6.353 9.763c-1.919 2.308-4.058 4.441-6.202 6.548-1.185 1.165-2.582 2.114-3.882 3.161l-.337-.23-1.214-1.038-1.256-2.753a41.402 41.402 0 01-1.394-9.838l.023-.561.171-2.426c.057-.828.133-1.655.168-2.485.129-2.982.241-5.964.359-8.946z"/><path fill-rule="evenodd" clip-rule="evenodd" fill="#4FAA41" d="M65.036 80.753c-.118 2.982-.23 5.964-.357 8.947-.035.83-.111 1.657-.168 2.485l-.765.289c-1.699-5.002-3.399-9.951-5.062-14.913-2.75-8.209-5.467-16.431-8.213-24.642a4498.887 4498.887 0 00-6.7-19.867c-.105-.31-.407-.552-.617-.826l4.896-9.002c.168.292.39.565.496.879a6167.476 6167.476 0 016.768 20.118c2.916 8.73 5.814 17.467 8.728 26.198.116.349.308.671.491 1.062l.67-.78-.167 10.052z"/><path fill-rule="evenodd" clip-rule="evenodd" fill="#4AA73C" d="M43.155 32.227c.21.274.511.516.617.826a4498.887 4498.887 0 016.7 19.867c2.746 8.211 5.463 16.433 8.213 24.642 1.662 4.961 3.362 9.911 5.062 14.913l.765-.289-.171 2.426-.155.559c-.266 2.656-.49 5.318-.814 7.968-.163 1.328-.509 2.632-.772 3.947-.198-.287-.476-.548-.583-.866-5.467-16.297-10.918-32.6-16.376-48.9a3888.972 3888.972 0 00-5.242-15.551c-.089-.263-.34-.469-.516-.702l3.272-8.84z"/><path fill-rule="evenodd" clip-rule="evenodd" fill="#57AE47" d="M65.202 70.702l-.67.78c-.183-.391-.375-.714-.491-1.062-2.913-8.731-5.812-17.468-8.728-26.198a6167.476 6167.476 0 00-6.768-20.118c-.105-.314-.327-.588-.496-.879l6.055-7.965c.191.255.463.482.562.769 1.681 4.921 3.347 9.848 5.003 14.778 1.547 4.604 3.071 9.215 4.636 13.813.105.308.47.526.714.786l.012 1.045c.058 8.082.115 16.167.171 24.251z"/><path fill-rule="evenodd" clip-rule="evenodd" fill="#60B24F" d="M65.021 45.404c-.244-.26-.609-.478-.714-.786-1.565-4.598-3.089-9.209-4.636-13.813-1.656-4.93-3.322-9.856-5.003-14.778-.099-.287-.371-.514-.562-.769 1.969-1.928 3.877-3.925 5.925-5.764 1.821-1.634 3.285-3.386 3.352-5.968.003-.107.059-.214.145-.514l.519 1.306c-.013.661-.072 1.322-.029 1.979.075 1.143.259 2.28.311 3.423.096 2.127.142 4.258.185 6.388.069 3.428.132 6.856.175 10.285.067 5.478.111 10.956.18 16.434.008.861.098 1.718.152 2.577z"/><path fill-rule="evenodd" clip-rule="evenodd" fill="#A9AA88" d="M62.598 107.085c.263-1.315.609-2.62.772-3.947.325-2.649.548-5.312.814-7.968l.066-.01.066.011a41.402 41.402 0 001.394 9.838c-.176.232-.425.439-.518.701-.727 2.05-1.412 4.116-2.143 6.166-.1.28-.378.498-.574.744l-.747-2.566.87-2.969z"/><path fill-rule="evenodd" clip-rule="evenodd" fill="#B6B598" d="M62.476 112.621c.196-.246.475-.464.574-.744.731-2.05 1.417-4.115 2.143-6.166.093-.262.341-.469.518-.701l1.255 2.754c-.248.352-.59.669-.728 1.061l-2.404 7.059c-.099.283-.437.483-.663.722l-.695-3.985z"/><path fill-rule="evenodd" clip-rule="evenodd" fill="#C2C1A7" d="M63.171 116.605c.227-.238.564-.439.663-.722l2.404-7.059c.137-.391.48-.709.728-1.061l1.215 1.037c-.587.58-.913 1.25-.717 2.097l-.369 1.208c-.168.207-.411.387-.494.624-.839 2.403-1.64 4.819-2.485 7.222-.107.305-.404.544-.614.812-.109-1.387-.22-2.771-.331-4.158z"/><path fill-rule="evenodd" clip-rule="evenodd" fill="#CECDB7" d="M63.503 120.763c.209-.269.506-.508.614-.812.845-2.402 1.646-4.818 2.485-7.222.083-.236.325-.417.494-.624l-.509 5.545c-.136.157-.333.294-.398.477-.575 1.614-1.117 3.24-1.694 4.854-.119.333-.347.627-.525.938-.158-.207-.441-.407-.454-.623-.051-.841-.016-1.688-.013-2.533z"/><path fill-rule="evenodd" clip-rule="evenodd" fill="#DBDAC7" d="M63.969 123.919c.178-.312.406-.606.525-.938.578-1.613 1.119-3.239 1.694-4.854.065-.183.263-.319.398-.477l.012 3.64-1.218 3.124-1.411-.495z"/><path fill-rule="evenodd" clip-rule="evenodd" fill="#EBE9DC" d="M65.38 124.415l1.218-3.124.251 3.696-1.469-.572z"/><path fill-rule="evenodd" clip-rule="evenodd" fill="#CECDB7" d="M67.464 110.898c-.196-.847.129-1.518.717-2.097l.337.23-1.054 1.867z"/><path fill-rule="evenodd" clip-rule="evenodd" fill="#4FAA41" d="M64.316 95.172l-.066-.011-.066.01.155-.559-.023.56z"/>
        </svg>
        <text class="tech-text" x="32" y="19" text-anchor="start">MongoDB</text>
      </g>
      <g class="tech-pill-group float-item-2" transform="translate(0, 40)">
        <rect class="tech-pill" width="140" height="30" rx="6"/>
        <svg class="tech-icon icon-sqlite" width="18" height="18" x="8" y="6" viewBox="0 0 128 128">
          <defs><linearGradient id="sqlite-original-a" x1="-15.615" x2="-6.741" y1="-9.108" y2="-9.108" gradientTransform="rotate(90 -90.486 64.634) scale(9.2712)" gradientUnits="userSpaceOnUse"><stop stop-color="#95d7f4" offset="0"/><stop stop-color="#0f7fcc" offset=".92"/><stop stop-color="#0f7fcc" offset="1"/></linearGradient></defs><path d="M69.5 99.176c-.059-.73-.094-1.2-.094-1.2S67.2 83.087 64.57 78.642c-.414-.707.043-3.594 1.207-7.88.68 1.169 3.54 6.192 4.118 7.81.648 1.824.78 2.347.78 2.347s-1.57-8.082-4.144-12.797a162.286 162.286 0 012.004-6.265c.973 1.71 3.313 5.859 3.828 7.3.102.293.192.543.27.774.023-.137.05-.274.074-.414-.59-2.504-1.75-6.86-3.336-10.082 3.52-18.328 15.531-42.824 27.84-53.754H16.9c-5.387 0-9.789 4.406-9.789 9.789v88.57c0 5.383 4.406 9.789 9.79 9.789h52.897a118.657 118.657 0 01-.297-14.652" fill="#0b7fcc"/><path d="M65.777 70.762c.68 1.168 3.54 6.188 4.117 7.809.649 1.824.781 2.347.781 2.347s-1.57-8.082-4.144-12.797a164.535 164.535 0 012.004-6.27c.887 1.567 2.922 5.169 3.652 6.872l.082-.961c-.648-2.496-1.633-5.766-2.898-8.328 3.242-16.871 13.68-38.97 24.926-50.898H16.899a6.94 6.94 0 00-6.934 6.933v82.11c17.527-6.731 38.664-12.88 56.855-12.614-.672-2.605-1.441-4.96-2.25-6.324-.414-.707.043-3.597 1.207-7.879" fill="url(#sqlite-original-a)"/><path d="M115.95 2.781c-5.5-4.906-12.164-2.933-18.734 2.899a44.347 44.347 0 00-2.914 2.859c-11.25 11.926-21.684 34.023-24.926 50.895 1.262 2.563 2.25 5.832 2.894 8.328.168.64.32 1.242.442 1.754.285 1.207.437 1.996.437 1.996s-.101-.383-.515-1.582c-.078-.23-.168-.484-.27-.773-.043-.125-.105-.274-.172-.434-.734-1.703-2.765-5.305-3.656-6.867-.762 2.25-1.437 4.36-2.004 6.265 2.578 4.715 4.149 12.797 4.149 12.797s-.137-.523-.782-2.347c-.578-1.621-3.441-6.64-4.117-7.809-1.164 4.281-1.625 7.172-1.207 7.88.809 1.362 1.574 3.722 2.25 6.323 1.524 5.867 2.586 13.012 2.586 13.012s.031.469.094 1.2a118.653 118.653 0 00.297 14.651c.504 6.11 1.453 11.363 2.664 14.172l.828-.449c-1.781-5.535-2.504-12.793-2.188-21.156.48-12.793 3.422-28.215 8.856-44.289 9.191-24.27 21.938-43.738 33.602-53.035-10.633 9.602-25.023 40.684-29.332 52.195-4.82 12.891-8.238 24.984-10.301 36.574 3.55-10.863 15.047-15.53 15.047-15.53s5.637-6.958 12.227-16.888c-3.95.903-10.43 2.442-12.598 3.352-3.2 1.344-4.067 1.8-4.067 1.8s10.371-6.312 19.27-9.171c12.234-19.27 25.562-46.648 12.141-58.621" fill="#003956"/>
        </svg>
        <text class="tech-text" x="32" y="19" text-anchor="start">SQL</text>
      </g>
    </g>
  </g>
  <!-- COLUMN 4: LANGUAGES -->
  <g class="card-group" transform="translate(585, 20)">
    <rect class="card-border active-pulse-4" width="180" height="260" rx="8"/>
    <text class="card-title" x="20" y="30" fill="#FF0000">Languages</text>
    
    <!-- Pills -->
    <g transform="translate(20, 50)">
      <g class="tech-pill-group float-item-1" transform="translate(0, 0)">
        <rect class="tech-pill" width="140" height="30" rx="6"/>
        <svg class="tech-icon icon-javascript" width="18" height="18" x="8" y="6" viewBox="0 0 128 128">
          <path fill="#F0DB4F" d="M1.408 1.408h125.184v125.185H1.408z"/><path fill="#323330" d="M116.347 96.736c-.917-5.711-4.641-10.508-15.672-14.981-3.832-1.761-8.104-3.022-9.377-5.926-.452-1.69-.512-2.642-.226-3.665.821-3.32 4.784-4.355 7.925-3.403 2.023.678 3.938 2.237 5.093 4.724 5.402-3.498 5.391-3.475 9.163-5.879-1.381-2.141-2.118-3.129-3.022-4.045-3.249-3.629-7.676-5.498-14.756-5.355l-3.688.477c-3.534.893-6.902 2.748-8.877 5.235-5.926 6.724-4.236 18.492 2.975 23.335 7.104 5.332 17.54 6.545 18.873 11.531 1.297 6.104-4.486 8.08-10.234 7.378-4.236-.881-6.592-3.034-9.139-6.949-4.688 2.713-4.688 2.713-9.508 5.485 1.143 2.499 2.344 3.63 4.26 5.795 9.068 9.198 31.76 8.746 35.83-5.176.165-.478 1.261-3.666.38-8.581zM69.462 58.943H57.753l-.048 30.272c0 6.438.333 12.34-.714 14.149-1.713 3.558-6.152 3.117-8.175 2.427-2.059-1.012-3.106-2.451-4.319-4.485-.333-.584-.583-1.036-.667-1.071l-9.52 5.83c1.583 3.249 3.915 6.069 6.902 7.901 4.462 2.678 10.459 3.499 16.731 2.059 4.082-1.189 7.604-3.652 9.448-7.401 2.666-4.915 2.094-10.864 2.07-17.444.06-10.735.001-21.468.001-32.237z"/>
        </svg>
        <text class="tech-text" x="32" y="19" text-anchor="start">JavaScript</text>
      </g>
      <g class="tech-pill-group float-item-2" transform="translate(0, 40)">
        <rect class="tech-pill" width="140" height="30" rx="6"/>
        <svg class="tech-icon icon-python" width="18" height="18" x="8" y="6" viewBox="0 0 128 128">
          <linearGradient id="python-original-a" gradientUnits="userSpaceOnUse" x1="70.252" y1="1237.476" x2="170.659" y2="1151.089" gradientTransform="matrix(.563 0 0 -.568 -29.215 707.817)"><stop offset="0" stop-color="#5A9FD4"/><stop offset="1" stop-color="#306998"/></linearGradient><linearGradient id="python-original-b" gradientUnits="userSpaceOnUse" x1="209.474" y1="1098.811" x2="173.62" y2="1149.537" gradientTransform="matrix(.563 0 0 -.568 -29.215 707.817)"><stop offset="0" stop-color="#FFD43B"/><stop offset="1" stop-color="#FFE873"/></linearGradient><path fill="url(#python-original-a)" d="M63.391 1.988c-4.222.02-8.252.379-11.8 1.007-10.45 1.846-12.346 5.71-12.346 12.837v9.411h24.693v3.137H29.977c-7.176 0-13.46 4.313-15.426 12.521-2.268 9.405-2.368 15.275 0 25.096 1.755 7.311 5.947 12.519 13.124 12.519h8.491V67.234c0-8.151 7.051-15.34 15.426-15.34h24.665c6.866 0 12.346-5.654 12.346-12.548V15.833c0-6.693-5.646-11.72-12.346-12.837-4.244-.706-8.645-1.027-12.866-1.008zM50.037 9.557c2.55 0 4.634 2.117 4.634 4.721 0 2.593-2.083 4.69-4.634 4.69-2.56 0-4.633-2.097-4.633-4.69-.001-2.604 2.073-4.721 4.633-4.721z" transform="translate(0 10.26)"/><path fill="url(#python-original-b)" d="M91.682 28.38v10.966c0 8.5-7.208 15.655-15.426 15.655H51.591c-6.756 0-12.346 5.783-12.346 12.549v23.515c0 6.691 5.818 10.628 12.346 12.547 7.816 2.297 15.312 2.713 24.665 0 6.216-1.801 12.346-5.423 12.346-12.547v-9.412H63.938v-3.138h37.012c7.176 0 9.852-5.005 12.348-12.519 2.578-7.735 2.467-15.174 0-25.096-1.774-7.145-5.161-12.521-12.348-12.521h-9.268zM77.809 87.927c2.561 0 4.634 2.097 4.634 4.692 0 2.602-2.074 4.719-4.634 4.719-2.55 0-4.633-2.117-4.633-4.719 0-2.595 2.083-4.692 4.633-4.692z" transform="translate(0 10.26)"/><radialGradient id="python-original-c" cx="1825.678" cy="444.45" r="26.743" gradientTransform="matrix(0 -.24 -1.055 0 532.979 557.576)" gradientUnits="userSpaceOnUse"><stop offset="0" stop-color="#B8B8B8" stop-opacity=".498"/><stop offset="1" stop-color="#7F7F7F" stop-opacity="0"/></radialGradient><path opacity=".444" fill="url(#python-original-c)" d="M97.309 119.597c0 3.543-14.816 6.416-33.091 6.416-18.276 0-33.092-2.873-33.092-6.416 0-3.544 14.815-6.417 33.092-6.417 18.275 0 33.091 2.872 33.091 6.417z"/>
        </svg>
        <text class="tech-text" x="32" y="19" text-anchor="start">Python</text>
      </g>
      <g class="tech-pill-group float-item-3" transform="translate(0, 80)">
        <rect class="tech-pill" width="140" height="30" rx="6"/>
        <svg class="tech-icon icon-java" width="18" height="18" x="8" y="6" viewBox="0 0 128 128">
          <path fill="#0074BD" d="M47.617 98.12s-4.767 2.774 3.397 3.71c9.892 1.13 14.947.968 25.845-1.092 0 0 2.871 1.795 6.873 3.351-24.439 10.47-55.308-.607-36.115-5.969zm-2.988-13.665s-5.348 3.959 2.823 4.805c10.567 1.091 18.91 1.18 33.354-1.6 0 0 1.993 2.025 5.132 3.131-29.542 8.64-62.446.68-41.309-6.336z"/><path fill="#EA2D2E" d="M69.802 61.271c6.025 6.935-1.58 13.17-1.58 13.17s15.289-7.891 8.269-17.777c-6.559-9.215-11.587-13.792 15.635-29.58 0 .001-42.731 10.67-22.324 34.187z"/><path fill="#0074BD" d="M102.123 108.229s3.529 2.91-3.888 5.159c-14.102 4.272-58.706 5.56-71.094.171-4.451-1.938 3.899-4.625 6.526-5.192 2.739-.593 4.303-.485 4.303-.485-4.953-3.487-32.013 6.85-13.743 9.815 49.821 8.076 90.817-3.637 77.896-9.468zM49.912 70.294s-22.686 5.389-8.033 7.348c6.188.828 18.518.638 30.011-.326 9.39-.789 18.813-2.474 18.813-2.474s-3.308 1.419-5.704 3.053c-23.042 6.061-67.544 3.238-54.731-2.958 10.832-5.239 19.644-4.643 19.644-4.643zm40.697 22.747c23.421-12.167 12.591-23.86 5.032-22.285-1.848.385-2.677.72-2.677.72s.688-1.079 2-1.543c14.953-5.255 26.451 15.503-4.823 23.725 0-.002.359-.327.468-.617z"/><path fill="#EA2D2E" d="M76.491 1.587S89.459 14.563 64.188 34.51c-20.266 16.006-4.621 25.13-.007 35.559-11.831-10.673-20.509-20.07-14.688-28.815C58.041 28.42 81.722 22.195 76.491 1.587z"/><path fill="#0074BD" d="M52.214 126.021c22.476 1.437 57-.8 57.817-11.436 0 0-1.571 4.032-18.577 7.231-19.186 3.612-42.854 3.191-56.887.874 0 .001 2.875 2.381 17.647 3.331z"/>
        </svg>
        <text class="tech-text" x="32" y="19" text-anchor="start">Java</text>
      </g>
      <g class="tech-pill-group float-item-4" transform="translate(0, 120)">
        <rect class="tech-pill" width="140" height="30" rx="6"/>
        <svg class="tech-icon icon-sqlite" width="18" height="18" x="8" y="6" viewBox="0 0 128 128">
          <defs><linearGradient id="sqlite-original-a" x1="-15.615" x2="-6.741" y1="-9.108" y2="-9.108" gradientTransform="rotate(90 -90.486 64.634) scale(9.2712)" gradientUnits="userSpaceOnUse"><stop stop-color="#95d7f4" offset="0"/><stop stop-color="#0f7fcc" offset=".92"/><stop stop-color="#0f7fcc" offset="1"/></linearGradient></defs><path d="M69.5 99.176c-.059-.73-.094-1.2-.094-1.2S67.2 83.087 64.57 78.642c-.414-.707.043-3.594 1.207-7.88.68 1.169 3.54 6.192 4.118 7.81.648 1.824.78 2.347.78 2.347s-1.57-8.082-4.144-12.797a162.286 162.286 0 012.004-6.265c.973 1.71 3.313 5.859 3.828 7.3.102.293.192.543.27.774.023-.137.05-.274.074-.414-.59-2.504-1.75-6.86-3.336-10.082 3.52-18.328 15.531-42.824 27.84-53.754H16.9c-5.387 0-9.789 4.406-9.789 9.789v88.57c0 5.383 4.406 9.789 9.79 9.789h52.897a118.657 118.657 0 01-.297-14.652" fill="#0b7fcc"/><path d="M65.777 70.762c.68 1.168 3.54 6.188 4.117 7.809.649 1.824.781 2.347.781 2.347s-1.57-8.082-4.144-12.797a164.535 164.535 0 012.004-6.27c.887 1.567 2.922 5.169 3.652 6.872l.082-.961c-.648-2.496-1.633-5.766-2.898-8.328 3.242-16.871 13.68-38.97 24.926-50.898H16.899a6.94 6.94 0 00-6.934 6.933v82.11c17.527-6.731 38.664-12.88 56.855-12.614-.672-2.605-1.441-4.96-2.25-6.324-.414-.707.043-3.597 1.207-7.879" fill="url(#sqlite-original-a)"/><path d="M115.95 2.781c-5.5-4.906-12.164-2.933-18.734 2.899a44.347 44.347 0 00-2.914 2.859c-11.25 11.926-21.684 34.023-24.926 50.895 1.262 2.563 2.25 5.832 2.894 8.328.168.64.32 1.242.442 1.754.285 1.207.437 1.996.437 1.996s-.101-.383-.515-1.582c-.078-.23-.168-.484-.27-.773-.043-.125-.105-.274-.172-.434-.734-1.703-2.765-5.305-3.656-6.867-.762 2.25-1.437 4.36-2.004 6.265 2.578 4.715 4.149 12.797 4.149 12.797s-.137-.523-.782-2.347c-.578-1.621-3.441-6.64-4.117-7.809-1.164 4.281-1.625 7.172-1.207 7.88.809 1.362 1.574 3.722 2.25 6.323 1.524 5.867 2.586 13.012 2.586 13.012s.031.469.094 1.2a118.653 118.653 0 00.297 14.651c.504 6.11 1.453 11.363 2.664 14.172l.828-.449c-1.781-5.535-2.504-12.793-2.188-21.156.48-12.793 3.422-28.215 8.856-44.289 9.191-24.27 21.938-43.738 33.602-53.035-10.633 9.602-25.023 40.684-29.332 52.195-4.82 12.891-8.238 24.984-10.301 36.574 3.55-10.863 15.047-15.53 15.047-15.53s5.637-6.958 12.227-16.888c-3.95.903-10.43 2.442-12.598 3.352-3.2 1.344-4.067 1.8-4.067 1.8s10.371-6.312 19.27-9.171c12.234-19.27 25.562-46.648 12.141-58.621" fill="#003956"/>
        </svg>
        <text class="tech-text" x="32" y="19" text-anchor="start">SQL</text>
      </g>
    </g>
  </g>
  <!-- COLUMN 5: TOOLS -->
  <g class="card-group" transform="translate(775, 20)">
    <rect class="card-border active-pulse-1" width="180" height="260" rx="8"/>
    <text class="card-title" x="20" y="30" fill="#FF0000">Tools</text>
    
    <!-- Pills -->
    <g transform="translate(20, 50)">
      <g class="tech-pill-group float-item-1" transform="translate(0, 0)">
        <rect class="tech-pill" width="140" height="30" rx="6"/>
        <svg class="tech-icon icon-git" width="18" height="18" x="8" y="6" viewBox="0 0 128 128">
          <path fill="#F34F29" d="M124.737 58.378L69.621 3.264c-3.172-3.174-8.32-3.174-11.497 0L46.68 14.71l14.518 14.518c3.375-1.139 7.243-.375 9.932 2.314 2.703 2.706 3.461 6.607 2.294 9.993l13.992 13.993c3.385-1.167 7.292-.413 9.994 2.295 3.78 3.777 3.78 9.9 0 13.679a9.673 9.673 0 01-13.683 0 9.677 9.677 0 01-2.105-10.521L68.574 47.933l-.002 34.341a9.708 9.708 0 012.559 1.828c3.778 3.777 3.778 9.898 0 13.683-3.779 3.777-9.904 3.777-13.679 0-3.778-3.784-3.778-9.905 0-13.683a9.65 9.65 0 013.167-2.11V47.333a9.581 9.581 0 01-3.167-2.111c-2.862-2.86-3.551-7.06-2.083-10.576L41.056 20.333 3.264 58.123a8.133 8.133 0 000 11.5l55.117 55.114c3.174 3.174 8.32 3.174 11.499 0l54.858-54.858a8.135 8.135 0 00-.001-11.501z"/>
        </svg>
        <text class="tech-text" x="32" y="19" text-anchor="start">Git</text>
      </g>
      <g class="tech-pill-group float-item-2" transform="translate(0, 40)">
        <rect class="tech-pill" width="140" height="30" rx="6"/>
        <svg class="tech-icon icon-github" width="18" height="18" x="8" y="6" viewBox="0 0 128 128">
          <g fill="#181616"><path fill-rule="evenodd" clip-rule="evenodd" d="M64 5.103c-33.347 0-60.388 27.035-60.388 60.388 0 26.682 17.303 49.317 41.297 57.303 3.017.56 4.125-1.31 4.125-2.905 0-1.44-.056-6.197-.082-11.243-16.8 3.653-20.345-7.125-20.345-7.125-2.747-6.98-6.705-8.836-6.705-8.836-5.48-3.748.413-3.67.413-3.67 6.063.425 9.257 6.223 9.257 6.223 5.386 9.23 14.127 6.562 17.573 5.02.542-3.903 2.107-6.568 3.834-8.076-13.413-1.525-27.514-6.704-27.514-29.843 0-6.593 2.36-11.98 6.223-16.21-.628-1.52-2.695-7.662.584-15.98 0 0 5.07-1.623 16.61 6.19C53.7 35 58.867 34.327 64 34.304c5.13.023 10.3.694 15.127 2.033 11.526-7.813 16.59-6.19 16.59-6.19 3.287 8.317 1.22 14.46.593 15.98 3.872 4.23 6.215 9.617 6.215 16.21 0 23.194-14.127 28.3-27.574 29.796 2.167 1.874 4.097 5.55 4.097 11.183 0 8.08-.07 14.583-.07 16.572 0 1.607 1.088 3.49 4.148 2.897 23.98-7.994 41.263-30.622 41.263-57.294C124.388 32.14 97.35 5.104 64 5.104z"/><path d="M26.484 91.806c-.133.3-.605.39-1.035.185-.44-.196-.685-.605-.543-.906.13-.31.603-.395 1.04-.188.44.197.69.61.537.91zm2.446 2.729c-.287.267-.85.143-1.232-.28-.396-.42-.47-.983-.177-1.254.298-.266.844-.14 1.24.28.394.426.472.984.17 1.255zM31.312 98.012c-.37.258-.976.017-1.35-.52-.37-.538-.37-1.183.01-1.44.373-.258.97-.025 1.35.507.368.545.368 1.19-.01 1.452zm3.261 3.361c-.33.365-1.036.267-1.552-.23-.527-.487-.674-1.18-.343-1.544.336-.366 1.045-.264 1.564.23.527.486.686 1.18.333 1.543zm4.5 1.951c-.147.473-.825.688-1.51.486-.683-.207-1.13-.76-.99-1.238.14-.477.823-.7 1.512-.485.683.206 1.13.756.988 1.237zm4.943.361c.017.498-.563.91-1.28.92-.723.017-1.308-.387-1.315-.877 0-.503.568-.91 1.29-.924.717-.013 1.306.387 1.306.88zm4.598-.782c.086.485-.413.984-1.126 1.117-.7.13-1.35-.172-1.44-.653-.086-.498.422-.997 1.122-1.126.714-.123 1.354.17 1.444.663zm0 0"/></g>
        </svg>
        <text class="tech-text" x="32" y="19" text-anchor="start">GitHub</text>
      </g>
      <g class="tech-pill-group float-item-3" transform="translate(0, 80)">
        <rect class="tech-pill" width="140" height="30" rx="6"/>
        <svg class="tech-icon icon-vscode" width="18" height="18" x="8" y="6" viewBox="0 0 128 128">
          <mask id="a" width="128" height="128" x="0" y="0" maskUnits="userSpaceOnUse" style="mask-type:alpha"><path fill="#fff" fill-rule="evenodd" d="M90.767 127.126a7.968 7.968 0 0 0 6.35-.244l26.353-12.681a8 8 0 0 0 4.53-7.209V21.009a8 8 0 0 0-4.53-7.21L97.117 1.12a7.97 7.97 0 0 0-9.093 1.548l-50.45 46.026L15.6 32.013a5.328 5.328 0 0 0-6.807.302l-7.048 6.411a5.335 5.335 0 0 0-.006 7.888L20.796 64 1.74 81.387a5.336 5.336 0 0 0 .006 7.887l7.048 6.411a5.327 5.327 0 0 0 6.807.303l21.974-16.68 50.45 46.025a7.96 7.96 0 0 0 2.743 1.793Zm5.252-92.183L57.74 64l38.28 29.058V34.943Z" clip-rule="evenodd"/></mask><g mask="url(#a)"><path fill="#0065A9" d="M123.471 13.82 97.097 1.12A7.973 7.973 0 0 0 88 2.668L1.662 81.387a5.333 5.333 0 0 0 .006 7.887l7.052 6.411a5.333 5.333 0 0 0 6.811.303l103.971-78.875c3.488-2.646 8.498-.158 8.498 4.22v-.306a8.001 8.001 0 0 0-4.529-7.208Z"/><g filter="url(#b)"><path fill="#007ACC" d="m123.471 114.181-26.374 12.698A7.973 7.973 0 0 1 88 125.333L1.662 46.613a5.333 5.333 0 0 1 .006-7.887l7.052-6.411a5.333 5.333 0 0 1 6.811-.303l103.971 78.874c3.488 2.647 8.498.159 8.498-4.219v.306a8.001 8.001 0 0 1-4.529 7.208Z"/></g><g filter="url(#c)"><path fill="#1F9CF0" d="M97.098 126.882A7.977 7.977 0 0 1 88 125.333c2.952 2.952 8 .861 8-3.314V5.98c0-4.175-5.048-6.266-8-3.313a7.977 7.977 0 0 1 9.098-1.549L123.467 13.8A8 8 0 0 1 128 21.01v85.982a8 8 0 0 1-4.533 7.21l-26.369 12.681Z"/></g><path fill="url(#d)" fill-rule="evenodd" d="M90.69 127.126a7.968 7.968 0 0 0 6.349-.244l26.353-12.681a8 8 0 0 0 4.53-7.21V21.009a8 8 0 0 0-4.53-7.21L97.039 1.12a7.97 7.97 0 0 0-9.093 1.548l-50.45 46.026-21.974-16.68a5.328 5.328 0 0 0-6.807.302l-7.048 6.411a5.336 5.336 0 0 0-.006 7.888L20.718 64 1.662 81.386a5.335 5.335 0 0 0 .006 7.888l7.048 6.411a5.328 5.328 0 0 0 6.807.303l21.975-16.681 50.45 46.026a7.959 7.959 0 0 0 2.742 1.793Zm5.252-92.184L57.662 64l38.28 29.057V34.943Z" clip-rule="evenodd" opacity="0.25" style="mix-blend-mode:overlay"/></g><defs><filter id="b" width="144.744" height="113.408" x="-8.41115" y="22.5944" color-interpolation-filters="sRGB" filterUnits="userSpaceOnUse"><feFlood flood-opacity="0" result="BackgroundImageFix"/><feColorMatrix in="SourceAlpha" result="hardAlpha" values="0 0 0 0 0 0 0 0 0 0 0 0 0 0 0 0 0 0 127 0"/><feOffset/><feGaussianBlur stdDeviation="4.16667"/><feColorMatrix values="0 0 0 0 0 0 0 0 0 0 0 0 0 0 0 0 0 0 0.25 0"/><feBlend in2="BackgroundImageFix" mode="overlay" result="effect1_dropShadow_1_36"/><feBlend in="SourceGraphic" in2="effect1_dropShadow_1_36" result="shape"/></filter><filter id="c" width="56.6667" height="144.007" x="79.6667" y="-8.0035" color-interpolation-filters="sRGB" filterUnits="userSpaceOnUse"><feFlood flood-opacity="0" result="BackgroundImageFix"/><feColorMatrix in="SourceAlpha" result="hardAlpha" values="0 0 0 0 0 0 0 0 0 0 0 0 0 0 0 0 0 0 127 0"/><feOffset/><feGaussianBlur stdDeviation="4.16667"/><feColorMatrix values="0 0 0 0 0 0 0 0 0 0 0 0 0 0 0 0 0 0 0.25 0"/><feBlend in2="BackgroundImageFix" mode="overlay" result="effect1_dropShadow_1_36"/><feBlend in="SourceGraphic" in2="effect1_dropShadow_1_36" result="shape"/></filter><linearGradient id="d" x1="63.9222" x2="63.9222" y1="0.329902" y2="127.67" gradientUnits="userSpaceOnUse"><stop stop-color="#fff"/><stop offset="1" stop-color="#fff" stop-opacity="0"/></linearGradient></defs>
        </svg>
        <text class="tech-text" x="32" y="19" text-anchor="start">VS Code</text>
      </g>
      <g class="tech-pill-group float-item-4" transform="translate(0, 120)">
        <rect class="tech-pill" width="140" height="30" rx="6"/>
        <svg class="tech-icon icon-vercel" width="18" height="18" x="8" y="6" viewBox="0 0 128 128">
          <g fill="#FFFFFF"><path d="M64.002 8.576 128 119.424H0Zm0 0"/></g>
        </svg>
        <text class="tech-text" x="32" y="19" text-anchor="start">Vercel</text>
      </g>
    </g>
  </g>
</svg>
